<svg width="31" height="31" viewBox="0 0 31 31" fill="none" xmlns="http://www.w3.org/2000/svg">
<path d="M15.0117 7.31082C10.7528 7.31082 7.31752 10.7461 7.31752 15.005C7.31752 19.2639 10.7528 22.6992 15.0117 22.6992C19.2706 22.6992 22.7059 19.2639 22.7059 15.005C22.7059 10.7461 19.2706 7.31082 15.0117 7.31082ZM15.0117 20.0072C12.2595 20.0072 10.0095 17.7639 10.0095 15.005C10.0095 12.2461 12.2528 10.0028 15.0117 10.0028C17.7706 10.0028 20.0139 12.2461 20.0139 15.005C20.0139 17.7639 17.7639 20.0072 15.0117 20.0072ZM24.8153 6.99609C24.8153 7.99386 24.0117 8.79073 23.0206 8.79073C22.0229 8.79073 21.226 7.98716 21.226 6.99609C21.226 6.00502 22.0296 5.20145 23.0206 5.20145C24.0117 5.20145 24.8153 6.00502 24.8153 6.99609ZM29.9113 8.81752C29.7974 6.4135 29.2483 4.28404 27.4871 2.52957C25.7327 0.775111 23.6032 0.226004 21.1992 0.105469C18.7215 -0.0351562 11.2952 -0.0351562 8.81752 0.105469C6.4202 0.219308 4.29073 0.768415 2.52957 2.52288C0.768415 4.27734 0.226004 6.40681 0.105469 8.81082C-0.0351562 11.2885 -0.0351562 18.7148 0.105469 21.1925C0.219308 23.5965 0.768415 25.726 2.52957 27.4805C4.29073 29.2349 6.4135 29.784 8.81752 29.9046C11.2952 30.0452 18.7215 30.0452 21.1992 29.9046C23.6032 29.7907 25.7327 29.2416 27.4871 27.4805C29.2416 25.726 29.7907 23.5965 29.9113 21.1925C30.0519 18.7148 30.0519 11.2952 29.9113 8.81752ZM26.7104 23.851C26.188 25.1635 25.1769 26.1747 23.8577 26.7037C21.8822 27.4872 17.1947 27.3064 15.0117 27.3064C12.8287 27.3064 8.13448 27.4805 6.16573 26.7037C4.85323 26.1814 3.84207 25.1702 3.31306 23.851C2.52957 21.8755 2.71038 17.1881 2.71038 15.005C2.71038 12.822 2.53627 8.12779 3.31306 6.15904C3.83538 4.84654 4.84654 3.83538 6.16573 3.30636C8.14118 2.52288 12.8287 2.70368 15.0117 2.70368C17.1947 2.70368 21.8889 2.52957 23.8577 3.30636C25.1702 3.82868 26.1813 4.83984 26.7104 6.15904C27.4938 8.13448 27.313 12.822 27.313 15.005C27.313 17.1881 27.4938 21.8822 26.7104 23.851Z" fill="#0071BA"/>
</svg>
