<svg width="201" height="111" viewBox="0 0 201 111" fill="none" xmlns="http://www.w3.org/2000/svg">
<path d="M37.9868 1H17.1361L1 110.356H15.9855L36.1065 88.3802L38.8567 110.356H55.4418L37.9868 1Z" fill="#0071BA" stroke="#262424" stroke-width="0.1"/>
<path d="M20.0265 85.7347L27.6034 33.4794L33.7772 70.6736L20.0265 85.7347Z" fill="#EEF3F5"/>
<path fill-rule="evenodd" clip-rule="evenodd" d="M169.273 23.6165C168.321 25.7546 166.651 26.9406 165.917 26.9186C165.003 26.8911 163.553 25.9193 163.425 22.8227C163.447 21.5872 164.609 17.909 166.651 16.424C167.585 15.5238 168.872 15.2523 169.765 16.5175C170.482 17.4673 170.226 21.4807 169.273 23.6165ZM199.819 37.2174C199.047 39.3609 197.521 42.7158 191.872 51.5163C186.395 60.63 180.476 63.8551 176.262 63.7286C172.056 63.2943 170.086 60.7582 169.035 57.9441C167.275 53.8702 167.539 49.2391 167.539 49.2391C167.539 49.2391 165.997 53.5239 164.48 56.5711C162.954 59.9281 160.331 63.2522 156.861 62.5277C153.948 61.5119 152.941 56.2245 153.798 49.1343C154.208 46.6719 155.749 42.387 155.561 42.6916C155.376 42.686 153.536 43.2488 152.254 43.2103C151.154 43.1773 149.705 42.2055 149.705 42.2055C149.705 42.2055 149.295 44.6678 148.719 46.1969C147.35 51.105 146.375 54.4786 144.844 58.1435C141.406 66.08 137.29 70.9079 133.997 70.501C130.706 70.0898 129.534 63.8669 129.422 59.8447C129.466 57.3714 130.287 52.4468 130.873 50.2999C131.471 47.5331 131.853 46.6163 131.853 46.6163C131.853 46.6163 130.012 47.1791 128.903 47.7661C128.164 48.0541 126.332 47.999 126.332 47.999L126.266 51.7079C126.035 54.4858 125.603 58.1859 123.475 64.6176C120.792 71.3428 117.263 74.0194 115.071 73.6434C112.691 73.5719 109.625 70.6972 109.368 64.5018C109.121 57.6908 112.268 45.4121 116.001 41.5033C117.308 40.3041 118.594 40.0348 118.594 40.0348C118.611 39.107 119.776 35.4312 120.145 35.1321C121.255 34.5473 125.262 35.9039 126.473 39.9613C126.473 39.9613 127.945 39.6953 128.865 39.415C130.901 38.2377 132.777 35.8217 134.995 34.6499C137.031 33.4726 138.497 33.5166 140.112 35.4217C141.372 36.698 141.9 37.95 140.009 41.2961C139.253 42.5096 137.902 46.4923 137.282 50.4947C136.467 55.1093 136.78 58.2114 136.78 58.2114C136.78 58.2114 137.896 57.3167 139.226 54.5718C141.316 50.3035 142.872 45.093 143.677 41.0961C144.282 38.0216 145.3 32.1747 146.056 30.9589C146.811 29.7454 148.979 31.3569 150.43 32.3287C151.871 33.6082 150.742 35.4308 152.55 36.7236C153.822 37.3799 155.869 35.5848 156.985 34.6901C158.106 33.4854 159.436 30.7427 160.909 30.4768C162.196 30.2053 163.643 31.177 164.726 32.1378C165.81 33.0964 165.771 35.262 165.005 37.0955C164.424 38.9346 162.312 44.4385 161.163 47.1866C160.003 50.5546 160.156 52.4157 160.156 52.4157C160.895 52.1278 163.316 49.7281 164.066 48.8224C165.375 47.3153 167.644 43.3602 167.644 43.3602C168.662 37.5155 169.844 32.9097 172.684 27.7378C174.758 24.3972 177.927 21.3996 181 23.6564C184.261 25.921 184.339 31.7987 182.965 37.0169C181.401 42.5373 177.518 44.5851 175.499 44.8346C173.656 45.3974 172.751 44.7521 172.751 44.7521C172.751 44.7521 172.368 45.6688 172.33 47.8322C172.292 49.9955 172.398 54.3299 174.025 55.6149C175.648 57.2101 179.136 56.6967 183.421 52.8044C187.515 49.2166 195.974 37.0975 197.293 34.9704C198.797 32.8511 199.558 31.3276 200.106 31.344C200.656 31.365 201.172 33.237 199.819 37.2174ZM106.155 69.9749C104.643 72.7165 102.938 75.7535 100.692 78.4731C98.6343 80.8859 96.7684 82.6864 94.754 82.6259C92.3791 82.2422 91.6971 79.4413 91.3692 77.2626C91.2169 75.4015 91.6551 71.3958 92.6514 66.7867C93.8328 62.183 94.7856 60.045 95.9616 55.7491C96.9388 52.3756 97.9079 49.3119 98.123 47.4619C98.123 47.4619 97.3894 47.4398 96.076 49.2569C94.9545 50.4594 92.6979 53.7945 91.379 55.9194C87.9845 61.387 84.5615 68.398 80.3531 78.4803C78.8178 82.4529 77.6364 87.0566 76.1501 88.2503C74.1085 89.7376 71.5879 87.1872 71.0612 85.933C70.3549 84.3632 70.216 81.8888 70.9974 79.1253C71.7786 76.3662 75.8755 62.2573 76.8405 59.5037C77.8109 56.4401 79.7627 49.6929 80.3439 47.8561C80.936 45.3992 81.3361 43.5547 81.5457 42.0146C81.5457 42.0146 81.1741 42.3136 80.4201 43.5272C79.8553 44.4385 75.9097 49.8874 71.9285 57.5018C62.2664 75.4623 54.7315 97.5077 53.6278 97.7803C52.5239 98.0595 51.4352 97.4065 50.3586 96.1379C49.0929 95.1694 47.8326 93.8931 48.7975 91.1418C49.5788 88.3826 53.8036 77.3726 55.3511 72.78C57.0864 67.8828 62.0829 54.7315 64.2334 47.062C65.5863 43.0816 66.3621 40.6303 67.1434 37.8712C67.338 37.2589 68.7114 32.0407 69.1333 28.9607C69.1387 28.6507 66.5255 31.357 61.6163 39.5595C60.4743 41.9998 54.2557 51.7116 53.3071 53.5396C52.1705 55.6721 46.8625 65.717 45.5313 68.464C44.2003 71.2066 41.3502 76.9963 39.0596 82.1847C37.346 85.8463 36.969 86.4531 35.1371 86.3981C34.0387 86.3651 33.4943 86.0408 32.7729 85.401C32.0462 85.0668 32.068 83.8312 32.6492 81.9922C34.3845 77.0994 36.8534 72.2221 39.8927 66.1257C42.9374 59.7215 50.5076 46.0294 54.0912 40.2595C57.4911 34.4863 66.3501 20.5227 68.9674 17.5086C71.4078 14.179 73.8277 12.0872 75.4923 11.2089C77.3351 10.6462 77.8672 11.5904 78.4007 12.5347C78.756 13.1635 79.2949 13.8 79.0676 16.2656C78.8404 18.7312 78.2101 23.3536 76.4638 28.8685C74.9054 34.0811 73.3319 40.2215 72.7495 42.0584L72.3561 43.5929C73.6654 42.0859 76.8938 35.6872 79.1559 32.0421C81.4193 28.3992 83.122 25.3576 85.7407 22.3413C88.5363 19.6405 89.8347 18.7535 90.9343 18.7865C92.2164 18.825 93.4754 20.099 93.6114 22.8879C93.7448 25.6767 93.3338 28.139 92.3646 31.2027C91.7671 33.9695 88.8558 43.1603 88.0854 45.3038C87.3028 48.0651 86.7161 50.212 86.5106 51.442L87.8267 49.625C88.7686 48.1069 92.7415 41.1103 96.3007 36.5803C99.8571 32.356 101.731 29.9376 103.952 28.7681C106.171 27.5986 108.014 27.0358 109.081 28.9222C109.957 31.1152 110.276 33.9074 108.333 40.0345C106.399 45.8539 104.491 50.1256 103.337 53.1837C102.18 56.5518 100.234 62.9868 99.6417 65.4436C98.859 68.2071 98.4439 70.9772 98.4439 70.9772C98.4439 70.9772 99.9369 69.4779 100.496 68.8744C101.806 67.3651 101.995 67.0629 103.676 65.2568C105.362 63.1386 106.483 61.9405 107.232 61.0325C108.163 60.1322 109.074 60.4697 108.679 62.0064C108.462 63.8565 107.491 66.92 106.155 69.9749ZM176.264 32.4888C174.566 35.2204 174.162 37.375 174.162 37.375C175.622 37.729 177.107 36.5352 178.056 34.7071C179.001 33.1891 179.406 31.0368 178.871 30.0925C178.7 29.467 177.589 30.054 176.264 32.4888ZM116.905 52.6674C114.96 59.1046 115.626 62.8376 115.811 62.8432C115.811 62.8432 117.641 62.8982 119.183 58.6111C120.731 54.0163 120.989 49.6951 120.485 47.2053C120.315 46.2742 118.64 47.7702 116.905 52.6674Z" fill="#0071BA"/>
</svg>
