<svg width="30" height="35" viewBox="0 0 30 35" fill="none" xmlns="http://www.w3.org/2000/svg">
<path d="M26.7857 2.14282H3.21429C1.43973 2.14282 0 3.58255 0 5.35711V28.9285C0 30.7031 1.43973 32.1428 3.21429 32.1428H26.7857C28.5603 32.1428 30 30.7031 30 28.9285V5.35711C30 3.58255 28.5603 2.14282 26.7857 2.14282ZM23.5112 12.7768C23.5246 12.9643 23.5246 13.1584 23.5246 13.3459C23.5246 19.1518 19.1049 25.8415 11.029 25.8415C8.53795 25.8415 6.22768 25.1183 4.28571 23.8727C4.64062 23.9129 4.98214 23.9263 5.34375 23.9263C7.39955 23.9263 9.28795 23.2299 10.7946 22.0513C8.86607 22.0111 7.24554 20.7455 6.68973 19.0044C7.36607 19.1049 7.97545 19.1049 8.67188 18.9241C6.66295 18.5156 5.15625 16.7477 5.15625 14.6116V14.558C5.73884 14.8861 6.42187 15.087 7.13839 15.1138C6.536 14.7131 6.04218 14.1695 5.70098 13.5315C5.35979 12.8936 5.18185 12.181 5.18304 11.4576C5.18304 10.6406 5.39732 9.89059 5.77902 9.24104C7.94196 11.9062 11.1897 13.6473 14.8326 13.8348C14.2098 10.8549 16.4397 8.43746 19.1183 8.43746C20.3839 8.43746 21.5223 8.96648 22.3259 9.82363C23.317 9.63613 24.2679 9.26782 25.1116 8.76559C24.7835 9.78345 24.0938 10.6406 23.183 11.183C24.067 11.0893 24.9241 10.8415 25.7143 10.5C25.1183 11.3772 24.3683 12.154 23.5112 12.7768Z" fill="#0071BA"/>
</svg>
